<svg xmlns="http://www.w3.org/2000/svg" viewBox="0 0 1000 1000">
  <title>catwalk-loading</title>
  <g>    
    <path fill="black" d="M693.5,552.4c0,0.6-0.1,1.2-0.2,1.9c-0.1,0.6-0.2,1.3-0.4,1.8c-0.3,1.2-0.6,2.3-1,3.5c-0.8,2.3-1.8,4.6-3.4,6.7
	c-1.5,2.1-3.7,3.9-6.3,4.9c-2.6,1-5.4,0.9-7.8,0.4c-0.8-0.2-1.1-0.2-1.8-0.4c-0.7-0.2-1.3-0.4-1.9-0.6c-1.2-0.5-2.4-1.2-3.5-2
	c-1.1-0.9-2-2-2.6-3.1c-0.7-1.2-1.1-2.4-1.5-3.6c-0.7-2.4-1.1-4.7-1.6-6.9c-0.2-1.1-0.5-2.2-0.8-3.2c-0.3-1-0.7-2.1-1.1-3.2
	c-0.4-1.1-0.8-2.1-1.2-3.1l-1.3-3.1c-1.8-4.2-3.8-8.3-6-12.3c-4.3-8-9-15.9-14.5-23.1c-1.4-1.8-2.8-3.6-4.3-5.1
	c-1.6-1.6-3.3-3-5.1-4.3c-3.6-2.6-7.6-4.7-11.8-6.5c-8.4-3.5-17.3-5.6-26.2-8.1c-2.2-0.6-4.4-1.2-6.7-1.8c-2.2-0.5-4.5-1.1-6.7-1.6
	c-4.5-1-9-2-13.4-3.4l-3.3-1.1c-1.1-0.4-2.2-0.8-3.2-1.3c-2.1-1-4.1-2.1-6.2-3.2c-3.2-1.7-6.4-3.5-9.8-4.6c-0.5,1.7-0.9,3.4-1.3,5.1
	c-1,4.4-1.7,8.8-1.7,13.1c0,4.4,0.7,8.6,2.4,12.6c1.7,3.8,4.6,7.4,7.1,11.3c1.3,2,2.5,4.1,3.3,6.5c0.9,2.3,1.3,4.7,1.4,7.2
	c0.1,0.4,0.1,0.8,0.1,1.3c0,0.5-0.1,1-0.2,1.6c-0.1,0.5-0.3,1-0.6,1.5c-0.2,0.4-0.5,0.7-0.7,1c-5.1,7.4-10.6,14.4-16.5,21.2
	c-5.9,6.7-12.1,13.2-18.9,19.1c-6.8,5.9-14.1,11.3-22.3,15.3c-4.1,2-8.5,3.5-13.1,4.3c-0.6,0.1-1.2,0.2-1.7,0.3
	c-0.6,0.1-1.2,0.1-1.7,0.2c-1.2,0.1-2.4,0.1-3.4,0.1c-2.1,0.1-4.3,0.2-6.6,0.3c-4.4,0.3-8.9,0.5-13.5,0.3c-2.3-0.1-4.6-0.3-7.1-1.1
	c-0.6-0.2-1.3-0.5-2-0.9l-0.3-0.2l-0.1-0.1c0,0-0.2-0.1-0.2-0.1l-0.3-0.3c-0.2-0.1-0.5-0.4-0.8-0.7c-1-1-1.8-2.2-2.3-3.5
	c-1-2.7-0.7-5.5,0.1-7.9c0.8-2.4,2.1-4.6,3.8-6.4c1.7-1.8,3.6-3.4,5.9-4.5c1.2-0.6,2.7-0.9,3.9-1c1.3-0.1,2.5,0,3.6,0.1
	c2.3,0.2,4.4,0.5,6.2,0.3c0.2,0,0.4-0.1,0.6-0.1c0.1,0,0.2,0,0.3-0.1l0.2,0l0.1,0c0,0,0,0,0,0c0.2-0.1,0.5-0.2,0.7-0.3
	c0.2-0.1,0.3-0.1,0.5-0.3c0.8-0.4,1.5-1,2.2-1.7c0.7-0.7,1.4-1.5,2.2-2.4c0.4-0.4,0.8-0.9,1.3-1.3c0.4-0.4,0.9-0.8,1.3-1.2
	c1.7-1.4,3.4-2.8,5.1-4.2c3.3-2.9,6.6-5.8,9.7-8.9c1.5-1.5,3-3.1,4.5-4.7c1.4-1.6,2.8-3.3,3.5-4.9c0.8-1.6,0.7-3-0.1-4.7
	c-0.8-1.7-2.1-3.4-3.5-5c-0.7-0.8-1.4-1.7-2.1-2.4c-0.8-0.8-1.5-1.7-2.2-2.4c-1.5-1.5-3-3.1-4.7-4.6c-3.2-3-6.5-5.9-9.8-8.9
	c-3.3-3-6.5-6.1-9.7-9.2c-6.4-6.1-12.8-12.1-20.7-15.3c-3.9-1.7-8.1-2.7-12.3-3.2c-2.2-0.3-4.2-0.4-6.5-0.5
	c-2.2-0.1-4.5-0.3-6.7-0.6c-8.9-1-17.7-2.9-26.4-4.6c-4.3-0.9-8.7-1.7-13-2.4l-3.3-0.5l-3.2-0.4l-3.3-0.3l-3.3-0.3
	c-8.8-0.7-17.6-0.9-26.5-1.5c-7.9-0.6-15.8-1.4-23.7-3.3c-0.9,3.3-1.4,6.7-1.7,10.1c-0.5,5.4-0.2,10.8,0.5,16.2
	c1.4,10.8,4.7,21.3,8.1,31.9l1.3,4c0.4,1.4,0.8,2.7,1.1,4.1c0.7,2.7,1.3,5.5,1.8,8.2c1,5.5,1.7,11.1,2,16.8c0.2,5.6,0.1,11.4-1.2,17
	c-0.6,2.8-1.6,5.7-3.1,8.3c-0.8,1.3-1.7,2.5-2.9,3.6c-1.1,1.1-2.4,1.9-3.7,2.6l-2.8,1.9l-0.5,0.3l-0.6,0c-2.3,0-4.9,0.5-7.4,1
	c-2.5,0.5-5.1,1.1-7.8,1.6c-2.7,0.4-5.4,0.7-8.3,0.3c-1.4-0.2-2.9-0.6-4.3-1.3c-1.4-0.7-2.6-1.8-3.5-3.1c-0.2-0.3-0.4-0.6-0.6-1
	l-0.3-0.5l-0.2-0.5l-0.2-0.4c-0.1-0.2-0.1-0.4-0.2-0.6c-0.1-0.4-0.3-0.8-0.4-1.2c-0.4-1.5-0.4-3.2,0-4.8c0.4-1.6,1.2-2.9,2.1-4.1
	c0.9-1.2,1.9-2.2,3-3.1c2.1-1.8,4.4-3.2,6.7-4.6c1.9-1.1,3.7-2.2,5.5-3.4c-1-3.2-2-6.4-2.9-9.6l-3.2-10.8
	c-2.2-7.2-4.5-14.3-7.2-21.3c-2.7-6.9-5.8-13.8-9.8-20c-2-3.1-4.2-6-6.8-8.6c-2.5-2.5-5.5-4.7-8.7-5.9l-0.1-0.1l-0.1-0.1
	c-5.1-3.1-10.3-6.1-15.8-7.7c-2.8-0.8-5.7-1.4-8.7-2l-2.2-0.4c-0.7-0.1-1.4-0.3-2.1-0.3c-1.4-0.2-2.7-0.3-3.9,0.1
	c-1.2,0.3-2.4,0.9-3.7,1.6c-1.3,0.7-2.7,1.4-4,2.1c-0.4,0.2-0.7,0.3-1.1,0.5l-1,0.5c-0.7,0.3-1.5,0.6-2.2,0.9
	c-1.5,0.5-2.9,1-4.4,1.4c-6,1.6-12,2.3-17.8,3.4c-2.9,0.6-5.8,1.3-8.5,2.2c-1.4,0.5-2.7,1-4,1.6c-0.3,0.1-0.7,0.3-1,0.5l-0.5,0.2
	l-0.5,0.3l-2,1.1c-2.5,1.5-5,3.1-7.4,4.8c-2.4,1.7-4.7,3.6-7,5.5c-4.6,3.8-9,7.9-13.5,11.9c-2.3,2-4.5,4-6.9,6
	c-2.3,1.9-4.8,3.8-7.3,5.5c-5.1,3.4-10.4,6.3-15.7,9.1c-5.3,2.8-10.6,5.6-15.6,8.8c-2.5,1.6-4.9,3.3-7.2,5.2
	c-2.3,1.9-4.5,3.8-6.8,5.9c-4.4,4-8.9,8.1-13.4,12.1c-4.5,4-9.2,7.9-14.2,11.4c-5,3.5-10.2,6.7-16,9c-2.9,1.1-5.9,2-9,2.3
	c-3.1,0.4-6.4,0.2-9.4-0.7c-3.1-0.8-5.9-2.4-8.4-4.3c-2.5-2-4.6-4.3-6.4-6.8l0,0l0,0c-0.7-1.2-1-2.6-0.9-3.9
	c0.1-1.3,0.5-2.6,1.1-3.7c1.2-2.2,2.9-3.9,4.8-5.4c1.9-1.4,4-2.6,6.4-3.3c2.2-0.6,4.3-1.1,6.5-1.8c2.1-0.7,4.1-1.5,6-2.5
	c1.9-1.1,3.6-2.4,5.3-3.8c1.7-1.5,3.3-3,4.9-4.6l4.8-4.7c3.2-3.1,6.4-6.3,9.7-9.3l9.8-9.2l9.8-9.2c3.3-3.1,6.5-6.2,9.7-9.3
	c6.4-6.3,12.5-12.9,18-19.9c2.7-3.5,5.3-7.2,7.6-11c0.6-1,1.1-1.9,1.6-2.9l0.8-1.5l0.7-1.5c0.2-0.5,0.5-1,0.7-1.5
	c0.2-0.5,0.4-1.1,0.6-1.6c0.1-0.5,0.3-1,0.4-1.5c0.1-0.5,0.2-1.1,0.3-1.6c0.8-4.3,0.6-8.8,0.8-13.3c0.1-2.3,0.4-4.6,0.9-6.8
	c0.6-2.2,1.2-4.3,1.8-6.5l0.9-3.2l1.6-6.5l0.7-3.3c0.5-2.2,0.8-4.4,1.2-6.6c0.1-1.1,0.3-2.2,0.3-3.3l0.1-1.6c0-0.4,0-0.9,0-1.3
	c-1.6-0.9-3.3-1.7-5-2.5c-1.8-0.8-3.7-1.6-5.5-2.2c-1.9-0.6-3.8-1.2-5.7-1.5c-1.9-0.4-3.9-0.5-5.8-0.4c-1,0.1-1.9,0.2-2.8,0.4
	c-1,0.2-1.9,0.5-2.9,0.7c-2,0.4-4,0.6-6.1,0.7c-4.1,0.1-8.1-0.3-12-0.5c-2-0.1-4-0.1-5.9,0c-2,0.1-4,0.2-6,0.2c-4,0-8.1-0.4-12-1.7
	c-1.9-0.6-3.8-1.5-5.6-2.5c-1.8-1-3.4-2.2-5-3.4c-3.1-2.5-6-5.4-8.9-8.2l-0.7-0.7h0.6c-0.1-1.9,0.1-3.9,0.5-5.8c0.4-2,1.1-4,1.7-5.9
	c0.6-2,1.3-3.9,1.7-5.9c0.5-2,0.7-4,0.8-6c0.2-4.1,0.4-8.2,1.6-12.2c1.2-4,3.4-7.6,5.9-10.8c1.2-1.7,2.7-3.1,4.2-4.5l4.5-4.2
	c1.5-1.4,2.9-2.8,4.3-4.4c1.3-1.5,2.5-3.2,3.2-5.1c0.6-1.9,0.8-4,0.3-6c-0.4-2-1.4-3.8-2.4-5.6c-1-1.8-2-3.6-2.6-5.6
	c-0.6-2-0.7-4.1-0.3-6.1l0-0.2l0.1,0.1l1.2,1.2l0,0l0,0c0.2,0.4,0.5,0.7,0.8,1c0.3,0.3,0.6,0.6,0.9,0.9c0.3,0.3,0.7,0.5,1.1,0.8
	c0.4,0.2,0.8,0.4,1.2,0.6c1.6,0.8,3.3,1.2,5,1.7c1.7,0.5,3.4,0.9,5,1.6c0.8,0.3,1.6,0.8,2.3,1.3c0.1,0.1,0.3,0.2,0.4,0.3
	c-0.1-0.1-0.2-0.3-0.3-0.4c-0.9-1.2-1.8-2.4-2.5-3.7c-0.9-1.5-1.7-3.2-2.1-4.9c-0.4-1.7-0.4-3.6,0.1-5.3c0.5-1.7,1.6-3.2,2.9-4.5
	l0.1,0l0.1,0l1,0.7l0.5,0.4l0.3,0.2l0,0l0,0c0,0,0,0,0,0.1c0,0,0,0.1,0,0.1c3.3,4.1,7.4,7.5,11.8,10.4c4.5,2.9,9.4,5.1,14.6,6.7
	c5.1,1.6,10.5,2.5,15.8,2.6c5.4,0.1,10.8,0.3,16.1,0.8c10.7,1,21.4,2.7,32.1,3.5c2.7,0.2,5.4,0.3,8,0.4c2.7,0.1,5.3,0,8-0.3
	c5.3-0.7,10.5-2.2,15.5-4c5.1-1.8,10.1-3.8,15.3-5.4c5.2-1.6,10.6-2.6,16-2.6c10.9,0,21.5,2.4,32.1,3.5c5.3,0.6,10.7,0.8,16,0.2
	c2.6-0.3,5.3-0.7,7.9-1.3c2.6-0.6,5.2-1.4,7.8-2c10.4-2.7,20.9-5.1,31.5-7.2c21.2-4.1,42.6-7,64.2-7.9c5.4-0.2,10.8-0.3,16.2-0.3
	c2.7,0,5.4,0,8.1,0.2c2.7,0.1,5.4,0.2,8.1,0.4c10.8,0.6,21.5,1.7,32.2,2.4c10.7,0.7,21.5,1.4,32-0.2c2.6-0.4,5.2-1,7.7-1.7
	c2.5-0.8,5-1.6,7.4-2.7c4.8-2.1,9.4-4.9,13.7-8c8.7-6.3,17.1-13,26.1-19.1c4.5-3.1,9.1-6,13.8-8.6c1.2-0.7,2.4-1.3,3.6-1.9l3.6-1.8
	l3.7-1.7l3.7-1.6c4.9-2.2,9.8-4.3,14.5-6.8c4.7-2.5,9.2-5.3,13.1-8.8c3.9-3.5,7.4-7.5,10.4-11.9c3-4.3,5.2-9.1,6.4-14.1
	c1.2-5.1,1.5-10.3,1.1-15.6c-0.4-5.2-1.5-10.5-2.8-15.6c-2.6-10.4-6.2-20.6-8.3-31.3c-1-5.4-1.6-10.9-1.4-16.4
	c0.2-5.5,1.4-11.1,3.5-16.2c1.1-2.6,2.4-5.1,3.8-7.4c1.5-2.4,3-4.6,4.7-6.8c3.4-4.3,7.3-8.3,11.8-11.6c4.5-3.3,9.6-5.7,14.9-7.4
	c5.3-1.7,10.9-2.4,16.3-2.7c1.5-0.1,2.9,0,4.5,0.3c1.5,0.3,3.1,1.1,4.4,2.4c1.2,1.3,1.9,3,2,4.6c0.2,1.6,0.1,3.1-0.2,4.5
	c-0.5,2.9-1.6,5.5-2.7,8c-1.2,2.5-2.5,4.9-3.9,7.3c-1.4,2.3-3,4.6-4.7,6.8c-0.4,0.5-0.9,1.1-1.4,1.6c-0.5,0.5-1,1.1-1.5,1.5
	c-1,1-1.8,1.9-2.7,2.8c-3.5,3.9-6.4,8.2-7.6,13.1c-1.2,4.9-0.7,10.1,0.3,15.3c0.5,2.6,1.1,5.2,1.8,7.8c0.6,2.6,1.3,5.3,1.8,8
	c1.1,5.3,1.8,10.7,2.3,16.2c0.4,5.4,0.5,10.9,0.1,16.4c-0.8,10.9-3.3,21.8-7.8,31.8c-4.4,10.1-10.6,19.2-17.8,27.5
	c-1.8,2-3.6,4.1-5.7,6c-2,1.9-4.1,3.7-6.1,5.4l-12.4,10.3c-8.2,6.9-16.2,14-23.2,22c-7,8-13,16.9-16.3,26.8l-0.1,0.2l-0.1,0.2
	c-0.3,0.5-0.5,1.2-0.7,1.9c0.3,0.6,0.6,1.1,0.9,1.7c0.9,1.4,1.8,2.8,2.8,4.2c2,2.7,4.1,5.4,6.2,8c2.1,2.7,4.2,5.3,6.3,8
	c1,1.4,2,2.7,3,4.1c0.5,0.7,0.9,1.4,1.4,2.2l1.1,2.3c3,6.2,5.1,12.7,6.9,19.2c0.9,3.3,1.7,6.6,2.5,9.8c0.8,3.3,1.7,6.5,2.6,9.7
	l0.4,1.2c0.1,0.3,0.3,0.8,0.4,1.2l0.4,1.2l0.4,1.1c0.6,1.5,1.3,3,2,4.5c1.5,3,3.2,5.8,5.1,8.5c3.8,5.4,8.3,10.4,13.3,14.9
	c4.9,4.5,10.3,8.5,15.9,12.1c5.6,3.6,11.6,6.6,17.7,8.9l0,0c0.6,0.2,1.1,0.8,1.2,1.5l0,0c0.6,4,2.4,7.9,4.7,11.6
	c2.2,3.8,4.8,7.5,6.7,11.8l1.3,3.1c0.4,1.1,0.8,2.2,1.2,3.2c0.7,2.1,1.4,4.3,2.1,6.4c0.7,2.1,1.4,4.2,2.1,6.3c0.4,1,0.8,2.1,1.2,3.1
	l0.3,0.8l0.1,0.4l0.2,0.4c0.2,0.5,0.4,1,0.7,1.5c0.9,1.9,1.9,3.9,2.9,5.8c1,1.9,2.1,3.9,3.2,5.8c2.2,3.9,4.4,7.7,6.5,11.8
	c2,4,3.9,8.3,5.1,12.7c1.1,4,1.6,8.3,1.3,12.6l1.2,0.6l1,0.5l0.1,1C693.7,547.6,693.7,550,693.5,552.4z"/>    
  </g>
</svg>
