<svg id="Layer_1" data-name="Layer 1" xmlns="http://www.w3.org/2000/svg" viewBox="0 0 446.36 654">
<defs><style></style></defs>
  <title>Catwalk-loading</title>
  <g id="g1" >
    <g id="g2" >
      <path id="p1"  
        d="M902.46,464.18c-2.62-30.76-16.56-49.57-26.21-78.43s-13.51-15.25-10.4-60.86-31.94-121.82-74.43-153.33-94.25-51-127.76-69.91c-36.33-20.49-31.09-17-54.08-27.66s-38.65-8.28-56.12-11.81-23.83,2.75-37.63,2S482.07,54.05,472.2,54s-2.67,3.29-2.65,8.37,8.3,16.71,10.3,22.41c-2.13,1-11.42-1.51-11.68,2.85s10,10.32,13.24,13.23c-2.15,8.72-6.74,18.37-7.37,27.16s5.43,19.25,6.7,26.51.25,10,0,16.43c2.2,1.81,2.76,3.45,5.39,5.53s7.54,6.25,10.77,7.7,6,0,9.15-.22c10.39,1.15,23.91-8.81,32.14-12.85s18.68-7.05,26-5.7,6.6,10.29,7.4,16.16,3.06,16.7,4.28,22.69-2.52,9.5-4.39,14.32c-6.34-3.19-10.88-4.52-17.84-7.42s-15.93-11.07-23.06-13.58-8-2-16.17-4.32-26-6.33-35.14-4.44-17.76,8.44-20,16.16S466,218.89,472,221s15.72-2,20.7-1.68,4.86,1.71,7.88,3.91c15.13,2,21.56,8.91,33.26,19.5s44,30,57.58,33.17,14-2.17,24.88-2.6c2.13,12.36,5.22,19.91,7,34.13s-5.15,45.89-7.37,57.92.43,14.54-3.67,21.26c-3.34,5.48-6.29,1.88-12.33,3.53-7.24,2-20.83,14.7-20.15,22.58.84,9.72,6.27,10.22,13.2,11.32,6.13,1,7.17-.21,14.44.13,12.74.58,6.92-2.46,25.41-2.13s-7.06,1,31.82,2.14,112.84-2,162.37,1.21c19.78,1.28,34.79,35.81,37,61.33,2.36,27.65-15,95.53-28.13,123.22-12.33,26-37.15,51.24-59.63,56.92-37.74,9.56-64.22-18.48-86.86-12.49-20.59,5.45-26.42,16.17-5.63,32.47,19.19,15,80.61,27,116.81,14.39C839.85,687.56,875.16,632,888,588.41c12.12-41.19,22.18-82.06,14.55-125m-219.94-77.1c-8.63,3.84-16.88,8.36-24.23,7.9s-8.24,2.13-14.58,1.65A203,203,0,0,1,654.39,371c4.93-9.87,9.16-25.51,11.93-37.05,3.53,13.27,11.65,27.38,19.82,37.84s5.06,10.73-3.56,14.57" 
        transform="translate(-458.92 -53)">
          <animate dur="2" repeatCount="indefinite" attributeName="d"
            values="M902.46,464.18c-2.62-30.76-16.56-49.57-26.21-78.43s-13.51-15.25-10.4-60.86-31.94-121.82-74.43-153.33-94.25-51-127.76-69.91c-36.33-20.49-31.09-17-54.08-27.66s-38.65-8.28-56.12-11.81-23.83,2.75-37.63,2S482.07,54.05,472.2,54s-2.67,3.29-2.65,8.37,8.3,16.71,10.3,22.41c-2.13,1-11.42-1.51-11.68,2.85s10,10.32,13.24,13.23c-2.15,8.72-6.74,18.37-7.37,27.16s5.43,19.25,6.7,26.51.25,10,0,16.43c2.2,1.81,2.76,3.45,5.39,5.53s7.54,6.25,10.77,7.7,6,0,9.15-.22c10.39,1.15,23.91-8.81,32.14-12.85s18.68-7.05,26-5.7,6.6,10.29,7.4,16.16,3.06,16.7,4.28,22.69-2.52,9.5-4.39,14.32c-6.34-3.19-10.88-4.52-17.84-7.42s-15.93-11.07-23.06-13.58-8-2-16.17-4.32-26-6.33-35.14-4.44-17.76,8.44-20,16.16S466,218.89,472,221s15.72-2,20.7-1.68,4.86,1.71,7.88,3.91c15.13,2,21.56,8.91,33.26,19.5s44,30,57.58,33.17,14-2.17,24.88-2.6c2.13,12.36,5.22,19.91,7,34.13s-5.15,45.89-7.37,57.92.43,14.54-3.67,21.26c-3.34,5.48-6.29,1.88-12.33,3.53-7.24,2-20.83,14.7-20.15,22.58.84,9.72,6.27,10.22,13.2,11.32,6.13,1,7.17-.21,14.44.13,12.74.58,6.92-2.46,25.41-2.13s-7.06,1,31.82,2.14,112.84-2,162.37,1.21c19.78,1.28,34.79,35.81,37,61.33,2.36,27.65-15,95.53-28.13,123.22-12.33,26-37.15,51.24-59.63,56.92-37.74,9.56-64.22-18.48-86.86-12.49-20.59,5.45-26.42,16.17-5.63,32.47,19.19,15,80.61,27,116.81,14.39C839.85,687.56,875.16,632,888,588.41c12.12-41.19,22.18-82.06,14.55-125m-219.94-77.1c-8.63,3.84-16.88,8.36-24.23,7.9s-8.24,2.13-14.58,1.65A203,203,0,0,1,654.39,371c4.93-9.87,9.16-25.51,11.93-37.05,3.53,13.27,11.65,27.38,19.82,37.84s5.06,10.73-3.56,14.57 ; 
            M902.37,462c-2.61-30.77-16.56-49.55-26.2-78.41s-13.41-15.21-10.31-60.83-31.72-121.73-74.18-153.44-94.35-51.19-127.92-69.94C627.41,79.1,633.39,82.7,610.87,72.25S574.48,65.11,557.48,62s-22.61,3.66-36.26,3.3S486.7,55.87,476.76,56s-2.58,3.34-2.21,8.46,9.4,16.82,11.92,22.48c-2,1-11.79-1.45-11.78,3s11,10.35,14.5,13.25c-1.44,8.91-5.28,18.84-5.26,27.69s6.94,19.31,8.48,26.5-.26,9.64-.58,15.89c1.93,1.51,2.35,3.25,4.58,5.06s5.09,5.34,8.09,6.65,6.63.27,9.88,0c10.49,1.6,24.8-8.3,32.19-12.79s14.77-8.32,21.37-7.36,5.64,10.31,6.18,15.76,2.41,16.48,3.3,22.33-2.86,9.46-5,14.05c-5.86-3-10.23-4.31-16.62-7s-13.25-10.12-20-12.47-6.7-1.57-15.24-3.93-30-7.32-39.93-6.43-18.9,7.52-21.27,15.39,6.4,14.07,12.4,16.41,16.9-1.47,22.11-.9,5.18,1.73,8.37,4.1c14.86,2,20.25,8,31.6,18.55s44.44,30,57.81,33.15,14-2.15,24.71-2.65c2.15,12.34,5.17,19.91,6.83,34.1s-5.25,45.83-7.43,57.85.47,14.58-3.61,21.3c-3.32,5.49-6.28,1.89-12.31,3.53-7.23,2-20.85,14.66-20.18,22.53.82,9.71,6.26,10.21,13.18,11.32,6.12,1,7.17-.19,14.44.15,12.74.59,6.92-2.43,25.41-2.1s-7.05,1,31.83,2.13,112.87-2,162.4,1.21c19.78,1.3,34.77,35.84,37,61.36,2.37,27.64-15,95.53-28.13,123.22-12.33,26-37.15,51.23-59.63,56.92-37.74,9.56-64.22-18.48-86.86-12.49-20.59,5.45-26.42,16.17-5.63,32.47,19.19,15,80.61,27,116.81,14.39,39.33-13.66,74.64-69.25,87.46-112.81,12.11-41.19,22.17-82.06,14.54-125M682.48,384.14c-8.63,3.84-16.88,8.37-24.24,7.9s-8.23,2.14-14.57,1.66a201,201,0,0,1,10.6-24.93c4.92-9.87,9.16-25.5,11.94-37C669.74,345,677.86,359.14,686,369.6s5.07,10.73-3.56,14.57 ; 
            M902.22,460.21c-2.62-30.59-16.49-49.59-26.22-78.31s-13.16-15.75-10.18-60.69-32.09-122.14-74.06-153.76S697.34,116,663.87,97.51c-36.28-20.07-29.92-16.56-52-27s-34.85-6.4-51.56-8.89S538.6,66.3,525,66.56s-35.56-8-45.53-7.54-2.42,3.43-1.64,8.55S488.6,84.14,491.6,89.68c-1.89,1.16-12.14-1.1-11.79,3.44s12.05,10.07,15.88,12.85c-.65,9-3.57,19.32-2.78,28.16s8.69,19,10.6,26.09-.61,9.21-.92,15.27c1.71,1.18,2,3,3.86,4.49s2.5,4.27,5.42,5.43,7.26.36,10.64,0c10.54,1.93,25.65-8.1,32.17-12.93s11-9.19,16.85-8.48,4.77,10.46,5.11,15.59,1.83,16.44,2.37,22.2-3.2,9.46-5.65,13.85c-5.39-2.87-9.56-4.29-15.39-6.87s-10.6-9.57-16.94-11.85-5.43-1.3-14.43-3.64-34.16-7.76-44.82-7.55-19.92,6.82-22.37,14.89,6.15,14.07,12.32,16.53,18-1.2,23.47-.54,5.49,1.67,8.86,4.14c14.66,1.93,18.85,7,29.7,17.78s44.66,30.37,57.92,33.52,14-2.08,24.64-2.64c2.17,12.32,5.12,19.92,6.71,34.1s-5.3,45.77-7.45,57.79.5,14.61-3.56,21.33c-3.32,5.48-6.28,1.89-12.3,3.52-7.22,2-20.86,14.61-20.2,22.47.81,9.7,6.24,10.22,13.16,11.34,6.12,1,7.17-.17,14.44.17,12.73.6,6.92-2.41,25.41-2.08s-7,1,31.84,2.13,112.9-2.12,162.42,1.2c19.78,1.32,34.75,35.88,36.94,61.39,2.37,27.64-15,95.53-28.13,123.22-12.33,26-37.15,51.23-59.63,56.92-37.74,9.56-64.22-18.48-86.86-12.49-20.59,5.45-26.42,16.17-5.63,32.47,19.19,15,80.61,27,116.81,14.38,39.31-13.65,74.62-69.24,87.44-112.81,12.11-41.19,22.16-82.05,14.55-125m-220-77.18c-8.64,3.84-16.89,8.37-24.24,7.91s-8.24,2.15-14.58,1.66a203.44,203.44,0,0,1,10.6-25c4.92-9.87,9.15-25.49,12-37,3.52,13.26,11.65,27.35,19.82,37.81s5.08,10.73-3.56,14.57 ; 
            M902.37,462c-2.61-30.77-16.56-49.55-26.2-78.41s-13.41-15.21-10.31-60.83-31.72-121.73-74.18-153.44-94.35-51.19-127.92-69.94C627.41,79.1,633.39,82.7,610.87,72.25S574.48,65.11,557.48,62s-22.61,3.66-36.26,3.3S486.7,55.87,476.76,56s-2.58,3.34-2.21,8.46,9.4,16.82,11.92,22.48c-2,1-11.79-1.45-11.78,3s11,10.35,14.5,13.25c-1.44,8.91-5.28,18.84-5.26,27.69s6.94,19.31,8.48,26.5-.26,9.64-.58,15.89c1.93,1.51,2.35,3.25,4.58,5.06s5.09,5.34,8.09,6.65,6.63.27,9.88,0c10.49,1.6,24.8-8.3,32.19-12.79s14.77-8.32,21.37-7.36,5.64,10.31,6.18,15.76,2.41,16.48,3.3,22.33-2.86,9.46-5,14.05c-5.86-3-10.23-4.31-16.62-7s-13.25-10.12-20-12.47-6.7-1.57-15.24-3.93-30-7.32-39.93-6.43-18.9,7.52-21.27,15.39,6.4,14.07,12.4,16.41,16.9-1.47,22.11-.9,5.18,1.73,8.37,4.1c14.86,2,20.25,8,31.6,18.55s44.44,30,57.81,33.15,14-2.15,24.71-2.65c2.15,12.34,5.17,19.91,6.83,34.1s-5.25,45.83-7.43,57.85.47,14.58-3.61,21.3c-3.32,5.49-6.28,1.89-12.31,3.53-7.23,2-20.85,14.66-20.18,22.53.82,9.71,6.26,10.21,13.18,11.32,6.12,1,7.17-.19,14.44.15,12.74.59,6.92-2.43,25.41-2.1s-7.05,1,31.83,2.13,112.87-2,162.4,1.21c19.78,1.3,34.77,35.84,37,61.36,2.37,27.64-15,95.53-28.13,123.22-12.33,26-37.15,51.23-59.63,56.92-37.74,9.56-64.22-18.48-86.86-12.49-20.59,5.45-26.42,16.17-5.63,32.47,19.19,15,80.61,27,116.81,14.39,39.33-13.66,74.64-69.25,87.46-112.81,12.11-41.19,22.17-82.06,14.54-125M682.48,384.14c-8.63,3.84-16.88,8.37-24.24,7.9s-8.23,2.14-14.57,1.66a201,201,0,0,1,10.6-24.93c4.92-9.87,9.16-25.5,11.94-37C669.74,345,677.86,359.14,686,369.6s5.07,10.73-3.56,14.57 ; 
            M902.46,464.18c-2.62-30.76-16.56-49.57-26.21-78.43s-13.51-15.25-10.4-60.86-31.94-121.82-74.43-153.33-94.25-51-127.76-69.91c-36.33-20.49-31.09-17-54.08-27.66s-38.65-8.28-56.12-11.81-23.83,2.75-37.63,2S482.07,54.05,472.2,54s-2.67,3.29-2.65,8.37,8.3,16.71,10.3,22.41c-2.13,1-11.42-1.51-11.68,2.85s10,10.32,13.24,13.23c-2.15,8.72-6.74,18.37-7.37,27.16s5.43,19.25,6.7,26.51.25,10,0,16.43c2.2,1.81,2.76,3.45,5.39,5.53s7.54,6.25,10.77,7.7,6,0,9.15-.22c10.39,1.15,23.91-8.81,32.14-12.85s18.68-7.05,26-5.7,6.6,10.29,7.4,16.16,3.06,16.7,4.28,22.69-2.52,9.5-4.39,14.32c-6.34-3.19-10.88-4.52-17.84-7.42s-15.93-11.07-23.06-13.58-8-2-16.17-4.32-26-6.33-35.14-4.44-17.76,8.44-20,16.16S466,218.89,472,221s15.72-2,20.7-1.68,4.86,1.71,7.88,3.91c15.13,2,21.56,8.91,33.26,19.5s44,30,57.58,33.17,14-2.17,24.88-2.6c2.13,12.36,5.22,19.91,7,34.13s-5.15,45.89-7.37,57.92.43,14.54-3.67,21.26c-3.34,5.48-6.29,1.88-12.33,3.53-7.24,2-20.83,14.7-20.15,22.58.84,9.72,6.27,10.22,13.2,11.32,6.13,1,7.17-.21,14.44.13,12.74.58,6.92-2.46,25.41-2.13s-7.06,1,31.82,2.14,112.84-2,162.37,1.21c19.78,1.28,34.79,35.81,37,61.33,2.36,27.65-15,95.53-28.13,123.22-12.33,26-37.15,51.24-59.63,56.92-37.74,9.56-64.22-18.48-86.86-12.49-20.59,5.45-26.42,16.17-5.63,32.47,19.19,15,80.61,27,116.81,14.39C839.85,687.56,875.16,632,888,588.41c12.12-41.19,22.18-82.06,14.55-125m-219.94-77.1c-8.63,3.84-16.88,8.36-24.23,7.9s-8.24,2.13-14.58,1.65A203,203,0,0,1,654.39,371c4.93-9.87,9.16-25.51,11.93-37.05,3.53,13.27,11.65,27.38,19.82,37.84s5.06,10.73-3.56,14.57" 
            fill="freeze" calcMode="spline" keySplines="1 1 1 1; 1 1 1 1; 1 1 1 1; 0.5 0.5 0.5 1"
            keyTimes="0 ; 0.25 ; 0.7 ; 0.85 ; 1"/>
      </path>
    </g>
  </g>
</svg>
