<svg xmlns="http://www.w3.org/2000/svg" viewBox="0 0 481.91 121.64"><path d="M450.34 70.31l29.61-34.76h-31.56l-19.84 24.68-2.66 3.52V0h-26.33v120.08h26.33V96.02l7.42-7.43 18.44 31.49h30.16l-31.57-49.77zM368.75.08h26.41v120h-26.41zM364.81 63.52q-.23-13.75-9.61-21.65t-25.55-7.89q-16.17 0-26.6 7.65t-10.43 19.9h26.33q0-9.26 9.38-9.26 10.08 0 10.08 11.7v4.48h-8.12q-19.38 0-29.53 7T290.6 96.23a23 23 0 0 0 8.35 18.14 30 30 0 0 0 20.31 7.23q13 0 20.31-9.14a29.69 29.69 0 0 0 2.5 7.58h26.33v-1.33q-3.44-6.17-3.59-17.81V63.52zm-26.41 32.5a13.23 13.23 0 0 1-4.65 4.77 14.69 14.69 0 0 1-8.16 2.11 8.76 8.76 0 0 1-6.17-2.23 7.53 7.53 0 0 1-2.42-5.82q0-12.34 13.75-12.34h7.66v13.52z"/><path d="M271.81 35.55l-8.51 49.82-13.28-49.84h-18.36l-13.44 51-8.36-51h-31.83v-21h-6.59c1.31 3.11-5.47 7.1-6.24 9.71-1.47 4.92 2.32 11 1.15 16.33-1.41 6.42-5.85 10.52-11 14.52-.89.7-2.26 1.67-3.69 2.8v18.67c1.36 4.54.92 7.53 5.25 11.43 2.24 2 6 3.84 7.88 5.88a22.93 22.93 0 0 1 3.4 4.64c2.37 5.2 7.2 12.79 6.64 18 .06-.53 0 .13 0 0-.29 3.21-3.79 5.49-6.39 3-1.41-1.36-2-6.24-3.24-8-5.13-7.52-9.18-10.18-13.32-11.49.61 6.58 2.69 11.67 6.27 15.21q6.48 6.41 20.08 6.41a48.61 48.61 0 0 0 14.88-2.27v-18.82a38.63 38.63 0 0 1-6.56.47q-5.08 0-6.8-1.87t-1.72-6.64V53.83h10.9l15.61 66.25h22.27l14.06-50.16 14 50.16h22.27l19.92-84.53h-25.25z"/><path d="M158.67 37.82c-.24-6.51-3.56-12.68.53-18.95a18.38 18.38 0 0 1 4.51-4.34h-12v21h-10.79v13.08a26.07 26.07 0 0 0-5.72-6.74q-9.37-7.89-25.55-7.89t-26.6 7.65q-7.6 5.57-9.66 13.59a29.4 29.4 0 0 0-7.75-12.1q-9.69-9.14-26.17-9.14-12.19 0-21.09 5.27A34.41 34.41 0 0 0 4.73 54.37 51.48 51.48 0 0 0 0 76.99v1.09q0 20.47 10.63 32a34 34 0 0 0 7.65 6.24c1.17-1.06 3.55-1.31 4.94-2.06 2.56-1.36 4.74-3.85 6.91-5.69 4.26-3.63 10.12-7.41 12.36-12.5.72-1.63 3.83-10.57 2.72-12.46-2-3.48-8.2-1.59-10.52-1.64-3.87-.08-6.76-.39-9.49-2.72a2 2 0 0 1-.65-1.94c.67-3.15 1.52-7 3.69-9.49 1-1.12 2.84-1.92 3.28-3.38.51-1.66-.94-3.07-1-4.72a.19.19 0 0 1 .28-.16c.7.41 2.26 1.16 3.81 2-6.27-7.84 7.59.45 7.85.5 5.46 1 12.9 2.19 18.37 1.14 3.12-.6 5.73-2 9-2.05 3.71-.05 7.29 1.3 11 1 6.92-.49 13.7-2.72 20.69-3.23 7.55-.55 14.71.58 22.22.83 7.35.25 13.15-3.45 19.15-7a65.83 65.83 0 0 1 6.77-3.56c5.16-2.21 9.22-5.67 9.01-11.37zM75.02 100.06c-5-3.21-7.4-2.07-12.38-.82-2.24.56-4.53.61-6.65 1.55-4.42 2-7.62 5.86-11.85 8.16a105.74 105.74 0 0 0-12.67 8.19 29.86 29.86 0 0 1-4.81 2.78 46.9 46.9 0 0 0 13 1.72q15.7 0 25.66-8.91a29.76 29.76 0 0 0 6.57-8.3 23.52 23.52 0 0 0 7 10 29.64 29.64 0 0 0 3.85 2.8 1.4 1.4 0 0 0 .78-.6c.23-.6-.92-2.94-1-3.62-.45-4.9-3.19-10.16-7.5-12.95zM144.8 98.47a41.22 41.22 0 0 1-4.81-1.22c-1 3.11-.65 4.93.44 7.84.7 1.86 2.23 3 1.71 5.12-.76 3.16-5.38 7.19-9.81 9.86h16.06v-1.33q-3.44-6.17-3.59-17.81v-2.46zM120.65 101.76c-8.29-6.43-22.64-4-32.57-6.45-2 6.72 6.38 18.89 1.6 25a33.38 33.38 0 0 0 9.56 1.35q13 0 20.31-9.14a40.36 40.36 0 0 0 1.49 5.3 5.51 5.51 0 0 0 1-.3 20.29 20.29 0 0 0 5.92-4.73c2.84-4.04-3.85-8.34-7.31-11.03z"/></svg>
