<svg xmlns="http://www.w3.org/2000/svg" viewBox="0 0 101.66 132.01"><title>cat-walking-away-mini</title><path d="M347.5,272.5c-1.1,1.9-1.1,3.1-.9,3.7a0.93,0.93,0,0,1-.6,1.2c-1.9.8-5.6,2.5-5.7,3.4-0.1,1.2-2.2,17.8-4.9,21.6s-2.2,21.2-4.5,28.1c-2.8,8.5-1.5,8-1.1,8.2s5.5,0.7,2.8,7a1.42,1.42,0,0,1-.9.8c-4.5,1.7-4.7.5-7.2-.1-2-.5-3.5-3.6-4-5a2.54,2.54,0,0,1-.2-1.2c0.2-3.1,1.3-14.3,1.3-14.5a11.88,11.88,0,0,0-1.1-4.3,4.45,4.45,0,0,1-.3-2.3l1-11.3a4.37,4.37,0,0,0-.9-3.1,2.29,2.29,0,0,0-2.7-.7c-2.8,1.2-8.8,3.7-9.3,4.4-0.7.8-.7,15.3-0.7,17.2V326c0.2,1.4,1.1,9.4,1.2,9.7,0.8,1.6.5,6.3-1,7.8s0.5,2.2-1.2,4a3.6,3.6,0,0,1-5.1,0c-1-1-4.1-4.5-3.1-7.9,0.6-1.9,1-2.6,1.2-2.7a1,1,0,0,0,.4-0.7c0.5-2.2,1.6-8.5-.9-7.9s-8.2,10.2-9.8,12.8a4.55,4.55,0,0,0-.5,2.8c0.6,2.4,2.8,5.1,2.7,8.1a8.56,8.56,0,0,1-.5,1.5c-0.2.4-.7,1.5-2.4-0.2-0.4-.4-1.3-1.7-1.4,0-0.3,4.7.1,7.1,0.4,8.2a2.1,2.1,0,0,0,.8,1.1c1.1,0.7,2.4,2.4,2,5.4-0.8,3.7-7.8,2.9-10,2.5a0.37,0.37,0,0,1-.3-0.1c-1.9-.8-2.8-3.9-3.1-5.1a2.77,2.77,0,0,1-.1-0.9c-0.1-2.7-.7-16.4-0.6-19.7a5.9,5.9,0,0,0-.2-1.4c-1.7-4.3-3.6-5.7-2.8-9.2s-1.3-10.4-.6-14.8a4.84,4.84,0,0,0,0-1.7c-0.6-6,0-8.4-.6-17.3a10.32,10.32,0,0,0-1.1-3.9c-1.5-2.8-1.2-6.3-1.4-10.8-0.2-3.8-1.7-10.2-1.6-11.1a10.93,10.93,0,0,1,.4-2.4,51.41,51.41,0,0,1,3.7-8.9c1.6-3,2.9-12.2-7.7-13.5a8.36,8.36,0,0,0-4.4.7c-12.3,5.4-9.1-3.2-8.6-3.6s18.7-18.7,31.4,1.6c2,3.2,1.2,2.9,4.9,1.1a4.18,4.18,0,0,1,1-.4c10.8-3.2,26.7,1.5,29.6,2.5a5,5,0,0,0,1.2.2,5.78,5.78,0,0,0,1.4-.5,2.23,2.23,0,0,0,1-1.8,10.24,10.24,0,0,1,2.8-7,2,2,0,0,1,2.7-.1c2.1,1.8,3,6.8,4.2,7.4s4.7-.5,7.3.8a2,2,0,0,0,1.7.1c3.4-1.6,8-6,11-7.7a0.48,0.48,0,0,1,.7.5c-0.2,1.6-3.7,5.7-3.6,7.1,0.1,1.8.5,5.5-.2,7.2S352.1,264.7,347.5,272.5Z" transform="translate(-250.66 -238.85)"/></svg>