<?xml version="1.0" encoding="utf-8"?>
<!-- Generator: Adobe Illustrator 21.1.0, SVG Export Plug-In . SVG Version: 6.00 Build 0)  -->
<svg version="1.1" id="Layer_1" xmlns="http://www.w3.org/2000/svg" xmlns:xlink="http://www.w3.org/1999/xlink" x="0px" y="0px"
	 viewBox="0 0 864 864" style="enable-background:new 0 0 864 864;" xml:space="preserve">
<g>
	<path d="M777.1,233.9c0,2.7,0,5.5,0,8.2c-0.3,1.3-0.6,2.7-0.9,4c-1.7,6.7-4.7,12.9-9,18.3c-7.9,9.8-13.5,20.8-18.3,32.2
		c-6.8,16.3-15.5,31.4-26.9,44.9c-6,7.1-11.8,14.4-17.8,21.5c-8.8,10.3-16,21.5-20.3,34.5c-1.9,5.8-5.2,10.9-8.9,15.7
		c-9.3,12.1-18.8,23.9-29.1,35.1c-4.3,4.7-7.5,9.9-8.8,16.2c-1.2,5.8-1.8,11.8-2.1,17.7c-0.5,10.8-1.7,21.4-5.6,31.6
		c-2.5,6.5-3.6,13.3-3.1,20.3c0.4,6.1,0.8,12.2-0.6,18.2c-3.9,16.3-9.2,32-17.6,46.5c-5,8.5-10.5,16.8-18.2,23.1
		c-11.2,9-21.5,19-30.7,29.9c-11,13.1-24.8,22.5-39.3,31c-1.3,0.8-2.7,1.3-4.1,1.9c-10.2,4.4-20.8,7.6-31.4,11.1
		c-0.9,0.3-1.9,0.5-2.7,1c-2.5,1.3-2.8,4.1-0.5,5.9c1,0.8,2.2,1.2,3.4,1.5c2.9,0.7,5.8,1.5,8.8,2.1c17.7,4,35.7,7.2,53.2,12.3
		c20.6,6,41.2,11.7,61.6,18.5c1.4,0.5,2.7,0.9,3.9,1.7c0.7,0.5,1.2,1.2,0.9,2.1c-0.3,1-1.1,1.3-2.1,1.3c-0.5,0-0.9-0.1-1.4-0.2
		c-10-1.3-19.8-3.5-29.6-6c-37.9-9.6-76.4-16.6-113.5-29.3c-2.3-0.8-4.6-0.6-6.4,1.1c-4.1,3.8-3.2,5.8,0.7,7.6
		c8.8,4.1,17.5,8.4,26.4,12.5c34,15.7,66.2,34.5,96.8,56.1c1.2,0.9,2.4,1.8,3.6,2.7c0.9,0.7,1.2,1.7,0.5,2.7
		c-0.7,1.1-1.6,1.1-2.7,0.7c-0.4-0.2-0.9-0.4-1.3-0.6c-18.1-9.3-35.8-19.4-53.7-29c-18.2-9.8-35.9-20.2-54.4-29.3
		c-6.8-3.3-13.6-6.5-20.6-9.3c-2.2-0.9-4.5-1.6-7-1.6c-1.2,0-2.6,0-3.2,1.4c-0.6,1.5,0.5,2.3,1.4,3.1c0.1,0.1,0.2,0.2,0.3,0.3
		c9.3,7.5,18,15.6,26.4,24.1c23.7,23.9,46.9,48.4,69.9,73c2.5,2.7,5.1,5.4,7.6,8.1c0.9,0.9,1.5,1.9,0.5,3.1
		c-1.1,1.3-2.2,0.8-3.2-0.1c-0.2-0.2-0.4-0.4-0.6-0.6c-10.6-10.1-21.3-20.2-31.9-30.3c-25.1-24-50.6-47.6-75.5-71.8
		c-1.8-1.8-3.1-1.9-5.4-0.7c-3.4,1.8-7.5,8.3-6,13.6c1,3.5,2.2,6.9,3.9,10.1c3.2,6.2,6.6,12.3,9.4,18.7
		c7.6,17.4,13.2,35.4,18.4,53.6c3.1,10.8,6.7,21.4,8.5,32.5c0.2,1.3,0.5,2.7-1.2,3.3c-1.7,0.6-2.3-0.7-2.9-1.8
		c-2.2-4.1-4.2-8.3-5.9-12.6c-9.5-24.2-18.9-48.4-28.3-72.5c-3.4-8.8-6.8-17.6-10.4-26.4c-1.7-4.2-4.1-5-7.5-2.5
		c-8.3,6-17.3,10.6-26.1,15.5c-8.5,4.7-16.7,9.7-25.8,13.1c-21.3,8.1-43.5,11.4-66.1,12.7c-16.2,0.9-32.2-1.5-47.4-7.4
		c-9.1-3.6-18.3-6.9-27.6-10.1c-4.1-1.4-8-3.1-11.8-5.2c-4.4-2.4-6.1-2.2-9.4,1.7c-2,2.3-3.9,4.8-6.1,7c-3.7,3.8-8.1,8.2-16.7,14.6
		c-13.3,9.8-26.4,19.3-30.2,22.1c-12.1,8.9-18.2,13.3-21.1,15.8c-6.3,5.5-28.9,21.5-31,21.8c-1.2,0.2-1.8,0.3-2.3,0
		c-1.2-0.8-0.5-3.1-0.6-7.8c0-1.3-0.3-2.6-0.3-3.9c0-215.4,0-430.8,0-646.2c0-0.8,12.1-10,13.8-11.5c5.2-5,9.1-10.9,12.8-17.1
		c3-5.2,4.8-10.9,7.5-16.2c2-3.9,3.4-7.9,4.3-12.2c1.2-6.2,1.6-12.7,3.9-18.7c6.7-17.4,14.9-34,25.9-49.1
		c9.1-12.4,17.3-25.2,23.2-39.4c1.1-2.5,2.7-4.7,4.5-6.9c2.8-3.4,6.3-6.3,9.2-9.7c2.8-3.3,6.1-5.9,10.3-7.2c2.7,0,5.5,0,8.2,0
		c3.3,0.9,6.6,1.9,9.9,2.7c12.2,3,22.6,9.3,31.4,18.2C266,34,274.3,47.2,281.7,61c5.6,10.4,9.7,21.5,14.1,32.4
		c4.1,10.2,9,20,15.5,28.9c4.7,6.4,10.9,10.4,18.7,11.5c11,1.5,21.1,5.2,30.6,10.8c8.5,5,15.9,11.3,23.4,17.7
		c10.5,8.8,21.4,17,33.9,22.7c25.5,11.6,50.3,24.7,75.1,37.8c10.2,5.4,20.3,11.1,31.6,14.3c3.1,0.9,6,2.1,8.7,3.7
		c10,6.1,21.1,7.5,32.5,6.4c11.1-1.2,22.3-2.3,33.4-4.4c11.3-2.1,22.7-4,33.5-8.2c13.9-5.4,28.3-9.6,42.7-13.3
		c14.4-3.7,29-6.3,43.9-7.1c8.4-0.5,16.8-0.2,25.2,0.8c6.4,0.8,12.8,1.6,18.7,4.3C769.8,222.2,775.2,226.4,777.1,233.9z M453,598.1
		c2.3,0,4.6-0.1,7-0.5c11-1.9,21.1-5.9,29.2-13.9c9-8.9,13.6-20,15.6-32.2c0.9-5.1,0-10.1-3.4-14.4c-7.1-9.2-16.3-13.8-28-12.8
		c-2.6,0.2-3.5,1.1-3.6,3.7c-0.1,4.6-0.4,9.2-0.8,13.7c-0.7,7.5-3.1,14.4-7.9,20.4c-2.1,2.6-4.3,5-7.1,6.7c-3.9,2.3-7.9,0.5-8.3-3.9
		c-1.2-11.8,0.5-22.9,10-31.3c1.4-1.2,2.5-2.7,3-4.6c0.7-2.6-0.9-5.1-3.5-5.1c-4.9-0.1-9.7-0.1-14.5,1c-10.6,2.4-18.7,8.6-26.2,16.1
		c-6.4,6.4-8,14-6,22.5C413,583.2,432.2,598.1,453,598.1z M226.5,513.7c5.4-0.1,12.5-1.2,18.9-5.1c7.6-4.6,12.7-11.4,16.5-19.2
		c1-2,1.4-4.3,0.9-6.6c-2.7-10.3-6.6-20-14.2-27.8c-2.7-2.8-5.8-5.1-9.4-6.4c-2.7-1-5,0.7-5,3.6c0,0.6,0,1.2,0.1,1.8
		c0.4,2.3,0.1,4.7-0.3,6.9c-2,10-8.2,17.2-16.2,22.9c-3.7,2.7-7.8,1.2-9.4-3.2c-1.3-3.5-1.4-7.1-1.4-10.7c0.1-6.7,2.7-12.5,6.5-17.9
		c2-2.7,4.2-5.2,6.2-7.9c3-3.9,2.5-6.5-1.6-9.2c-3.6-2.3-7.4-3.8-11.7-4.3c-12.2-1.5-24,4.7-28.2,17c-2.7,7.9-2.9,15.8-1.7,23.9
		C179.9,495.9,200.1,513.7,226.5,513.7z"/>
</g>
</svg>
