<?xml version="1.0" encoding="utf-8"?>
<!-- Generator: Adobe Illustrator 23.0.2, SVG Export Plug-In . SVG Version: 6.00 Build 0)  -->
<svg version="1.1" id="Layer_1" xmlns="http://www.w3.org/2000/svg" xmlns:xlink="http://www.w3.org/1999/xlink" x="0px" y="0px"
	 viewBox="0 0 864 864" style="enable-background:new 0 0 864 864;" xml:space="preserve">
<style type="text/css">
	.st0{fill:none;stroke:#000000;stroke-width:2;stroke-linecap:round;stroke-miterlimit:10;}
</style>
<g>
	<path d="M677.9,236.7c-5.9-2.7-12.3-3.5-18.7-4.3c-8.4-1-16.8-1.4-25.2-0.9c-14.9,0.8-29.5,3.5-43.9,7.2s-28.8,7.9-42.7,13.3
		c-10.8,4.2-22.2,6.1-33.5,8.2c-11.1,2.1-22.3,3.2-33.4,4.4c-11.4,1.1-22.5-0.3-32.5-6.4c-2.7-1.6-5.6-2.8-8.7-3.7
		c-11.3-3.2-21.4-8.8-31.6-14.2c-12.4-6.5-24.7-13.2-37.2-19.5c-12.5-6.4-25.1-12.5-37.9-18.3c-12.5-5.7-23.4-13.9-33.9-22.7
		c-7.5-6.4-14.9-12.7-23.4-17.7c-9.5-5.6-19.6-9.3-30.6-10.8c-7.8-1.1-13.9-5.2-18.6-11.6c-6.5-8.9-11.5-18.6-15.6-28.8
		c-4.4-10.9-8.5-22-14.1-32.4c-7.4-13.8-15.7-27-26.7-38.5c-8.8-8.9-19.2-15.2-31.4-18.2c-3.3-0.8-6.6-1.8-9.9-2.7
		c-2.7,0-5.5,0-8.2,0c-4.2,1.3-7.5,4-10.3,7.3c-2.9,3.4-6.5,6.2-9.3,9.6c-1.8,2.2-3.3,4.5-4.4,7C90.3,57,82.1,69.8,73,82.2
		c-5.5,7.6-10.3,15.5-14.6,23.7c-4.3,8.2-7.9,16.7-11.3,25.4c-2.3,6-2.8,12.5-4,18.7c-0.9,4.3-2.4,8.3-4.4,12.2
		c-2.7,5.3-4.4,11-7.4,16.2c-3.7,6.2-7.6,12.1-12.8,17.1c-1.7,1.5-13.7,10.7-13.7,11.5c0,12,0,23.9,0,35.9c0,12,0,23.9,0,35.9
		c0,12-0.1,23.9-0.1,35.9s0,23.9,0,35.9s0.1,23.9,0.1,35.9c0,12,0,23.9,0,35.9s-0.1,23.9-0.1,35.9s0,23.9,0,35.9c0,12,0,23.9,0,35.9
		s0,23.9,0,35.9c0,12,0.1,23.9,0.1,35.9s-0.1,23.9-0.1,35.9s0,23.9,0,35.9s-0.1,23.9-0.1,35.9s0.1,23.9,0.1,35.9
		c0,12,0.1,23.9,0.1,35.9s0,23.9,0,35.9c0,12,0,23.9,0,35.9c0,1.3,0.1,2.6,0.1,3.9c0.1,4.7-0.6,7.1,0.6,7.9c0.5,0.3,1.1,0,2.3-0.2
		c2.1-0.3,24.8-16.1,31.1-21.6c2.9-2.5,8.9-7,21-15.9c3.8-2.8,16.9-12.3,30.2-22.1c8.6-6.4,13-10.8,16.7-14.6c2.2-2.2,4.1-4.7,6.1-7
		c3.3-3.9,5-4,9.4-1.6c3.8,2.1,7.8,3.7,11.9,5.1c9.3,3.2,18.5,6.6,27.6,10.2c15.2,5.9,31.2,8.4,47.4,7.5c11.3-0.7,22.5-2,33.5-4
		c11-2,21.9-4.9,32.5-8.9c9.1-3.4,17.3-8.3,25.8-13c5.2-2.9,10.5-5.8,15.7-8.9c7.2-4.2,19.6-12.7,31.5-21.2
		c14.1-10,27.5-19.8,30.7-22.4c7.7-4.4,16.3-10.9,25.5-14.9c18.5-8.1,31-15.5,40.5-17.7c10.6-6.9,20.4-14.7,28.7-24.6
		c9.2-10.9,19.6-20.8,30.8-29.8c7.7-6.3,13.1-14.7,18.1-23.2c8.4-14.5,13.8-30.2,17.7-46.5c1.4-6,1-12.1,0.6-18.2
		c-0.5-7,0.6-13.8,3.1-20.3c3.9-10.2,5-20.8,5.5-31.6c0.3-5.9,1-11.9,2.2-17.7c1.3-6.3,4.5-11.5,8.8-16.2
		c10.3-11.2,19.7-23.1,29-35.2c3.7-4.8,7-9.9,8.9-15.7c4.3-13,11.6-24.2,20.4-34.5c6-7.1,11.8-14.4,17.8-21.5
		c11.4-13.5,20.1-28.6,26.9-44.9c4.8-11.4,10.4-22.4,18.3-32.2c4.3-5.4,7.2-11.6,8.9-18.3c0.3-1.3,0.7-2.7,1-4c0-2.7,0-5.5,0-8.2
		C690,243.7,684.5,239.6,677.9,236.7z M178.3,461.6c-1.3,5.4-5.3,9.4-8.7,13.7c-1.8,1.9-3.9,3.6-6,5.1c-6.4,4.5-14.1,7.1-22.6,6.6
		c-13.9-1-26.9-8-36.2-18.1C95.5,458.6,90,445,91,431c1-8,4-16,11-22c3.5-2.5,7-4.2,10.7-5.3c7.3-1.7,15.8-1.8,20.2,4.3
		c11.6,15.9-3.6,20.3-3.6,32.3c-1,7,3.7,15.7,9.7,10.7c7-7-2-18.5,14-24.1c17.4-6,23,16,26.2,28.2
		C179.7,457.4,179.3,459.6,178.3,461.6z M426.9,539.4c-1,11.4-6.3,21.9-14.3,30c-7.8,7.9-18.2,13.5-29.6,15.4
		c-16,2-33-2.9-43.6-15.9c-1.8-2-3.4-4.2-4.8-6.5s-2.6-4.8-3.6-7.4c-3-9-1-17,4-25c1.7-2.5,3.8-4.9,6.1-7.1c2.4-2.2,5-4.1,7.7-5.8
		c8.2-6.1,29.8-11.3,29.8,2.7c1,10-13.6,19.3-9.6,30.3c2,4,2.3,2.1,7.3,1.1c4-1,6-5,7-9c3-11-1.8-26.4,17.8-28.2
		c13.3-1.2,20,8.1,25.8,18.2C427.3,534.5,427.4,537,426.9,539.4z"/>
</g>
<path d="M360.7,736.6"/>
<path class="st0" d="M291.6,696.3c2.6,2.3,86.2,41.9,129.5,103.7"/>
<path class="st0" d="M299.2,704.9c1.7,3,67.7,67.9,88.4,140.4"/>
<path class="st0" d="M308.8,706.9c3,1.9,91.7,28,144,82.3"/>
<path class="st0" d="M304.4,701c2.1,2.8,75.4,59.2,104.6,128.7"/>
</svg>
