<svg xmlns="http://www.w3.org/2000/svg" viewBox="0 0 579.65 72"><defs><style>.a{fill:#55565a}</style></defs><path class="a" d="M289 38.71h4.76v22.81h11.12v4H289V38.71zM309.47 38.71h16.12v4h-11.36v6.85h9.64v4h-9.64v7.92h11.82v4h-16.58V38.71zM343.81 58.23h-9l-2.09 7.26h-4.87l8.78-26.83h5.58l8.74 26.83h-5zm-1.07-3.73l-.94-3.27c-.82-2.83-1.64-5.91-2.42-8.86h-.16c-.74 3-1.52 6-2.38 8.86l-.94 3.28h6.85zM354.15 38.71h7.14c8.21 0 13.09 4.43 13.09 13.29s-4.88 13.54-12.84 13.54h-7.39V38.71zm6.81 23c5.42 0 8.53-3.08 8.53-9.68s-3.12-9.44-8.53-9.44h-2.05v19.12h2.05zM385.41 38.71h4.92l2.3 13.54c.45 2.87.9 5.74 1.35 8.58h.16c.53-2.83 1.15-5.74 1.72-8.58l3.32-13.54h4.1l3.35 13.52c.58 2.79 1.19 5.7 1.76 8.58h.16c.45-2.87.86-5.74 1.31-8.58l2.3-13.54h4.6l-5.17 26.83h-5.91l-3.32-14.11c-.45-2.09-.82-4.14-1.19-6.2h-.12c-.37 2.05-.74 4.1-1.19 6.2l-3.24 14.11h-5.87zM420.82 38.71h4.76v26.83h-4.76V38.71zM437.27 42.73h-7.75v-4h20.23v4h-7.7v22.81h-4.76V42.73zM454.14 38.71h4.76V49.5h10.83V38.71h4.76v26.83h-4.76v-11.9H458.9v11.9h-4.76V38.71zM489.63 38.71h7.14c8.21 0 13.09 4.43 13.09 13.29s-4.88 13.54-12.84 13.54h-7.38V38.71zm6.81 23c5.42 0 8.53-3.08 8.53-9.68s-3.12-9.44-8.53-9.44h-2.05v19.12h2.05zM527.21 58.23h-9l-2.09 7.26h-4.87l8.8-26.78h5.58l8.74 26.83h-5zm-1.07-3.73l-.94-3.27c-.82-2.83-1.64-5.91-2.42-8.86h-.16c-.74 3-1.52 6-2.38 8.86l-.94 3.28h6.85zM541.32 42.73h-7.75v-4h20.23v4h-7.75v22.81h-4.76V42.73zM568.98 58.23h-9l-2.09 7.26h-4.84l8.78-26.83h5.58l8.74 26.83h-5zm-1.07-3.73l-.94-3.27c-.82-2.83-1.64-5.91-2.42-8.86h-.16c-.74 3-1.52 6-2.38 8.86l-.96 3.31h6.85zM143.29 38.08a2.72 2.72 0 0 1 .37-3.23l12.49-12.91c1.43-1.47-.63-1.47-.63-1.47h-11.67a5.21 5.21 0 0 0-3.46 1.49L128.8 34.23c-1.41 1.49-1.41-.56-1.41-.56V6.83a2 2 0 0 0-2.05-2.05h-8.85a1.93 1.93 0 0 0-2 2v56.16a2 2 0 0 0 2.05 2.05h8.76a1.93 1.93 0 0 0 2-2v-9.87a5.19 5.19 0 0 1 1.5-3.46l4.13-3.88 10.38 17.45a3.84 3.84 0 0 0 3.1 1.76h11.07c2.05 0 1-1.75 1-1.75L143.3 38.11zm-38 24.84V22.43a2 2 0 0 0-2.05-2.05h-8.86a2 2 0 0 0-2.05 2.05v40.49a2 2 0 0 0 2.05 2.05h8.86a2 2 0 0 0 2.05-2.05zm-.34-50.39v-5.8a1.93 1.93 0 0 0-2-2h-8.67a1.93 1.93 0 0 0-2 2v5.8a1.93 1.93 0 0 0 2 2h8.77a1.93 1.93 0 0 0 2-2zM82.78 62.92V6.83a2 2 0 0 0-2.05-2.05h-9a2 2 0 0 0-2.05 2.05v56.09a2 2 0 0 0 2.05 2.05h9a2 2 0 0 0 2.05-2.05zm-20.3-2.42a1.72 1.72 0 0 0-.17-2.47l-7.26-6.3a30.24 30.24 0 1 0-8.48 8.34l7.95 6.91a1.72 1.72 0 0 0 2.47-.17l5.48-6.3zm-15-25.63a17.39 17.39 0 1 1-17.39-17.39 17.39 17.39 0 0 1 17.39 17.39z"/><path d="M243.74 61.13l-9.69-8.12a34.57 34.57 0 1 0-9.34 9.83l10.34 8.66a2 2 0 0 0 2.82-.25l6.13-7.3a2 2 0 0 0-.25-2.82zm-17.69-26.56a21.24 21.24 0 1 1-21.24-21.24 21.24 21.24 0 0 1 21.24 21.24z" fill="#094"/><path class="a" d="M191.21 34.57a13.62 13.62 0 1 1 13.62 13.66 13.62 13.62 0 0 1-13.62-13.62zM237.9 10.23a3.76 3.76 0 1 1 3.76 3.76 3.77 3.77 0 0 1-3.76-3.76zm3.76-3.26a3.26 3.26 0 1 0 3.16 3.26 3.18 3.18 0 0 0-3.15-3.29zm-.87 5.55h-.5V7.93h1.66a1.24 1.24 0 0 1 1.41 1.27 1.16 1.16 0 0 1-1.09 1.28l1.29 2h-.61l-1.22-2h-.93v2zm0-2.49h1c.6 0 1-.13 1-.84a.86.86 0 0 0-1-.83h-1v1.66zM573.81 39.1h-1.23v-.43h3v.43h-1.23v3.64h-.51V39.1zM576.26 38.67h.61l.79 2.18.29.83.29-.83.78-2.18h.61v4.07h-.49V40.5c0-.36 0-.84.07-1.2l-.32.91-.78 2.13h-.3l-.76-2.11-.32-.91c0 .36.06.84.06 1.2v2.24h-.48v-4.07z"/></svg>