<svg xmlns="http://www.w3.org/2000/svg" viewBox="0 0 431.23 126.51"><defs><style>.a{fill:#55565a}</style></defs><path class="a" d="M251.77 66.9a4.78 4.78 0 0 1 .64-5.68l22-22.68c2.51-2.59-1.1-2.59-1.1-2.59h-20.5a9.15 9.15 0 0 0-6.08 2.62l-20.42 21.58c-2.47 2.62-2.47-1-2.47-1V12c0-3.6-3.6-3.6-3.6-3.6h-15.55a3.4 3.4 0 0 0-3.47 3.47v98.68c0 3.6 3.6 3.6 3.6 3.6h15.4a3.4 3.4 0 0 0 3.47-3.47V93.34a9.11 9.11 0 0 1 2.63-6.07l7.26-6.82 18.23 30.61a6.75 6.75 0 0 0 5.45 3.09h19.46c3.6 0 1.74-3.08 1.74-3.08l-26.68-44.16zm-66.74 43.65V39.41c0-3.6-3.6-3.6-3.6-3.6h-15.55c-3.6 0-3.6 3.6-3.6 3.6v71.14c0 3.6 3.6 3.6 3.6 3.6h15.56c3.6 0 3.6-3.6 3.6-3.6zM184.44 22V11.82a3.4 3.4 0 0 0-3.41-3.47h-15.29a3.4 3.4 0 0 0-3.47 3.47V22a3.4 3.4 0 0 0 3.47 3.47h15.29A3.4 3.4 0 0 0 184.5 22zm-39 88.55V12c0-3.6-3.6-3.6-3.6-3.6h-15.81c-3.6 0-3.6 3.6-3.6 3.6v98.55c0 3.6 3.6 3.6 3.6 3.6h15.86c3.6 0 3.6-3.6 3.6-3.6zm-35.67-4.24a3 3 0 0 0-.3-4.35L96.74 90.9a53.13 53.13 0 1 0-14.9 14.65l14 12.14a3 3 0 0 0 4.35-.3l9.63-11.07zm-26.34-45a30.55 30.55 0 1 1-30.56-30.55 30.55 30.55 0 0 1 30.56 30.55z"/><path d="M428.26 107.4l-17-14.26a60.73 60.73 0 1 0-16.42 17.28l18.12 15.21a3.44 3.44 0 0 0 5-.43l10.77-12.83a3.44 3.44 0 0 0-.43-5zm-31-46.66a37.32 37.32 0 1 1-37.32-37.32 37.32 37.32 0 0 1 37.32 37.32z" fill="#094"/><path class="a" d="M335.97 60.74a23.92 23.92 0 1 1 23.93 23.93 23.92 23.92 0 0 1-23.93-23.93zM418.03 17.92a6.61 6.61 0 1 1 6.61 6.61 6.63 6.63 0 0 1-6.61-6.61zm6.61-5.73a5.73 5.73 0 1 0 5.55 5.73 5.59 5.59 0 0 0-5.57-5.77zm-1.52 9.74h-.88v-8.06h2.92a2.18 2.18 0 0 1 2.47 2.23 2 2 0 0 1-1.91 2.25l2.26 3.59h-1.1l-2.14-3.59h-1.63v3.59zm0-4.37h1.82c1.06 0 1.8-.23 1.8-1.47 0-1-.79-1.45-1.8-1.45h-1.82v2.92z"/></svg>